#N canvas 1272 0 1920 966 10;
#X msg 790 118 \; pd dsp \$1;
#X obj 790 46 tgl 30 0 empty empty empty 17 7 0 10 #9c9c9c #000000 #000000 0 1;
#X obj 799 98 s global_volume_fade;
#X obj 70 200 cnv 15 700 500 empty empty empty 20 12 0 14 #fce0c4 #404040 0;
#X obj 95 462 mrpeach/packOSC;
#X text 94 203 Transmitter;
#X obj 95 630 netsend -u -b;
#X obj 548 500 loadbang;
#X obj 95 487 cyclone/prepend send;
#X floatatom 95 228 5 0 0 0 - - - 0;
#X obj 95 250 / 100;
#X floatatom 95 275 5 0 0 0 - - - 0;
#X floatatom 208 227 5 0 0 0 - - - 0;
#X obj 208 249 / 100;
#X floatatom 208 274 5 0 0 0 - - - 0;
#X floatatom 304 275 5 0 0 0 - - - 0;
#X floatatom 622 224 5 0 0 0 - - - 0;
#X obj 622 246 / 100;
#X floatatom 622 271 5 0 0 0 - - - 0;
#X obj 172 29 vsl 16 136 0 100 0 0 empty empty empty 0 -9 0 10 #fcfcfc #000000 #000000 0 1;
#X obj 230 29 vsl 16 136 0 100 0 0 empty empty empty 0 -9 0 10 #fcfcfc #000000 #000000 0 1;
#X msg 95 297 /bci_alpha \$1;
#X msg 208 296 /bci_beta \$1;
#X msg 405 624 disconnect;
#X msg 146 529 connect 100.91.66.148 8002;
#X msg 146 576 connect 192.168.137.1 8002;
#X obj 578 24 vsl 16 136 0 100 0 0 empty empty empty 0 -9 0 10 #fcfcfc #000000 #000000 0 1;
#X msg 304 297 /bci_trig_1 \$1;
#X msg 304 239 1;
#X msg 405 239 1;
#X msg 513 239 1;
#X floatatom 405 274 5 0 0 0 - - - 0;
#X floatatom 514 272 5 0 0 0 - - - 0;
#X msg 405 296 /bci_trig_2 \$1;
#X msg 514 294 /bci_trig_3 \$1;
#X text 301 4 T1;
#X text 404 3 T2;
#X text 512 4 T3;
#X msg 345 529 connect 172.21.207.96 8002;
#X msg 622 293 /bci_slid \$1;
#X text 170 6 Alpha;
#X text 228 5 Beta;
#X text 577 3 Slid;
#X msg 333 239 0;
#X msg 434 239 0;
#X msg 542 239 0;
#X obj 333 218 delay 100;
#X obj 434 218 delay 100;
#X obj 542 219 delay 100;
#X obj 304 26 bng 16 250 50 0 empty empty empty 0 -8 0 10 #fcfcfc #000000 #000000;
#X obj 405 26 bng 16 250 50 0 empty empty empty 0 -8 0 10 #fcfcfc #000000 #000000;
#X obj 513 23 bng 16 250 50 0 empty empty empty 0 -8 0 10 #fcfcfc #000000 #000000;
#X msg 548 527 connect 127.0.0.1 8002;
#X connect 1 0 0 0;
#X connect 1 0 2 0;
#X connect 4 0 8 0;
#X connect 7 0 52 0;
#X connect 8 0 6 0;
#X connect 9 0 10 0;
#X connect 10 0 11 0;
#X connect 11 0 21 0;
#X connect 12 0 13 0;
#X connect 13 0 14 0;
#X connect 14 0 22 0;
#X connect 15 0 27 0;
#X connect 16 0 17 0;
#X connect 17 0 18 0;
#X connect 18 0 39 0;
#X connect 19 0 9 0;
#X connect 20 0 12 0;
#X connect 21 0 4 0;
#X connect 22 0 4 0;
#X connect 23 0 6 0;
#X connect 24 0 6 0;
#X connect 25 0 6 0;
#X connect 26 0 16 0;
#X connect 27 0 4 0;
#X connect 28 0 15 0;
#X connect 29 0 31 0;
#X connect 30 0 32 0;
#X connect 31 0 33 0;
#X connect 32 0 34 0;
#X connect 33 0 4 0;
#X connect 34 0 4 0;
#X connect 38 0 6 0;
#X connect 39 0 4 0;
#X connect 43 0 15 0;
#X connect 44 0 31 0;
#X connect 45 0 32 0;
#X connect 46 0 43 0;
#X connect 47 0 44 0;
#X connect 48 0 45 0;
#X connect 49 0 28 0;
#X connect 49 0 46 0;
#X connect 50 0 29 0;
#X connect 50 0 47 0;
#X connect 51 0 30 0;
#X connect 51 0 48 0;
#X connect 52 0 6 0;
